<?xml version="1.0" standalone="no"?>
<!DOCTYPE svg PUBLIC "-//W3C//DTD SVG 20010904//EN"
 "http://www.w3.org/TR/2001/REC-SVG-20010904/DTD/svg10.dtd">
<svg version="1.0" xmlns="http://www.w3.org/2000/svg"
 width="25.000000pt" height="25.000000pt" viewBox="0 0 512.000000 512.000000"
 preserveAspectRatio="xMidYMid meet">

<g transform="translate(0.000000,512.000000) scale(0.100000,-0.100000)"
fill="#000000" stroke="none">
<path d="M2510 4801 c-56 -19 -2368 -884 -2410 -902 -27 -12 -55 -34 -70 -56
l-25 -37 -3 -1688 c-2 -1677 -2 -1689 18 -1728 23 -45 80 -80 131 -80 44 0
104 37 125 76 10 19 21 34 24 34 4 0 14 -16 23 -35 19 -39 79 -75 127 -75 75
0 150 74 150 147 0 16 -68 231 -150 478 l-150 450 0 1078 c0 859 3 1078 13
1075 6 -3 144 -54 305 -113 l292 -108 0 -547 c0 -588 1 -604 54 -708 142 -279
663 -493 1321 -542 857 -63 1684 176 1871 542 53 104 54 120 54 708 l0 546
358 133 c487 181 492 184 522 228 18 26 25 50 25 83 0 71 -34 113 -120 149
-202 83 -2392 894 -2423 897 -20 2 -48 0 -62 -5z m1042 -672 c538 -200 978
-366 978 -369 0 -3 -443 -170 -985 -372 l-985 -368 -784 293 -783 292 806 5
c747 5 808 6 838 23 38 20 73 82 73 127 0 45 -35 107 -73 127 -30 17 -91 18
-838 23 l-806 5 781 292 c429 161 786 291 791 289 6 -1 450 -166 987 -367z
m-1684 -1171 c493 -185 658 -242 692 -242 34 0 199 57 692 242 356 133 650
242 653 242 3 0 5 -217 5 -482 l0 -481 -26 -44 c-79 -135 -401 -277 -764 -337
-197 -33 -302 -40 -560 -40 -258 0 -363 7 -560 40 -363 60 -685 202 -764 337
l-26 44 0 481 c0 265 2 482 5 482 3 0 297 -109 653 -242z"/>
</g>
</svg>
